# xmcd
#
# Track frame offsets:
#	150
#	12592
#	25558
#	35388
#	45929
#	54943
#	65512
#	75324
#	84355
#	94493
#	103871
#	114913
#	125059
#	135335
#	146612
#	156309
#	167424
#	178891
#	189307
#	197661
#	210182
#	222705
#	234497
#	245518
#	256922
#	265827
#
# Disc length: 3726 seconds
#
# Revision: 0
# Processed by: cddbd v1.5.2PL0 Copyright (c) Steve Scherf et al.
# Submitted via: EasyCDDAExtractor 15.3.0.1
#
DISCID=5d0e8c1a
DTITLE=Wills Bob - Faded Love CD 11
DYEAR=1900
DGENRE=
TTITLE0=Running Bear (1968)
TTITLE1=If I Just Had A Home To Go Home To (1968)
TTITLE2=Across The Alley From The Alamo (1968)
TTITLE3=Time Changes Everything (1968)
TTITLE4=Texas Double Eagle (1968)
TTITLE5=Southwestern Waltz (1968)
TTITLE6=Cherokee Maiden (1968)
TTITLE7=There's Not A Hundred Miles Left In Me (1968)
TTITLE8=I'm Living In The Middle Of Nowhere (1968)
TTITLE9=Silver Bells (1968)
TTITLE10=Limehouse Blues (1968)
TTITLE11=Memory #1 (1968)
TTITLE12=South Of The Border (1968)
TTITLE13=Song Of The Wanderer (1969)
TTITLE14=Slow Poke (1969)
TTITLE15=Panhandle Rag (1969)
TTITLE16=No Letter Today (1969)
TTITLE17=Shame On You (1969)
TTITLE18=Whose Heart Are You Breaking Now (1969)
TTITLE19=My Mary (1969)
TTITLE20=It's A Good World (1969)
TTITLE21=What Kind Of Girl Are You (1969)
TTITLE22=Milk Cow Blues (1969)
TTITLE23=Talkin' Bout You (1969)
TTITLE24=Look What Trouble Left Behind (1969)
TTITLE25=Brown Skin Gal (1969)
EXTD=
EXTT0=
EXTT1=
EXTT2=
EXTT3=
EXTT4=
EXTT5=
EXTT6=
EXTT7=
EXTT8=
EXTT9=
EXTT10=
EXTT11=
EXTT12=
EXTT13=
EXTT14=
EXTT15=
EXTT16=
EXTT17=
EXTT18=
EXTT19=
EXTT20=
EXTT21=
EXTT22=
EXTT23=
EXTT24=
EXTT25=
PLAYORDER=
